<?xml version="1.0" encoding="UTF-8"?>
<svg width="26px" height="28px" viewBox="0 0 26 28" version="1.1" xmlns="http://www.w3.org/2000/svg" xmlns:xlink="http://www.w3.org/1999/xlink">
    <title>Anchor</title>
    <g id="Page-1" stroke="none" stroke-width="1" fill="none" fill-rule="evenodd">
        <g id="noun_Anchor_3499486" transform="translate(-3.000000, 0.000000)" fill="var( --theme-color-icon, #000000 )" fill-rule="nonzero">
            <path d="M28.037,16.113 L25.863,12.348 C25.617,11.921 25.213,11.921 24.967,12.348 L22.793,16.113 C22.547,16.54 22.748,16.889 23.242,16.889 L24.139,16.889 C23.988,17.614 23.798,18.328 23.478,19.001 C23.171,19.643 22.779,20.279 22.33,20.832 C21.235,22.178 19.788,23.069 18.182,23.535 L17.43,11.84 L20.287,11.84 C20.556,12.318 21.06,12.644 21.647,12.644 C22.512,12.644 23.214,11.942 23.214,11.078 C23.214,10.213 22.512,9.511 21.647,9.511 C21.06,9.511 20.555,9.837 20.287,10.314 L17.332,10.314 L17.148,7.468 C18.611,6.983 19.675,5.617 19.675,3.994 C19.675,1.967 18.027,0.318 15.999,0.318 C13.971,0.318 12.323,1.966 12.323,3.994 C12.323,5.617 13.387,6.982 14.85,7.468 L14.666,10.314 L11.71,10.314 C11.441,9.837 10.937,9.511 10.35,9.511 C9.485,9.511 8.784,10.213 8.784,11.078 C8.784,11.942 9.485,12.644 10.35,12.644 C10.937,12.644 11.442,12.318 11.711,11.84 L14.567,11.84 L13.814,23.536 C12.209,23.071 10.76,22.18 9.665,20.833 C9.217,20.28 8.824,19.644 8.518,19.002 C8.198,18.329 8.008,17.614 7.856,16.89 L8.756,16.89 C9.25,16.89 9.451,16.54 9.205,16.114 L7.031,12.349 C6.785,11.922 6.381,11.922 6.135,12.349 L3.961,16.114 C3.717,16.54 3.918,16.89 4.411,16.89 L5.392,16.89 C5.35,17.974 5.518,19.022 5.783,20.075 C6.041,21.101 6.475,22.073 7.063,22.953 C8.253,24.734 10.005,26.158 12.021,26.895 C13.32,27.37 14.623,27.604 15.999,27.683 C17.375,27.604 18.678,27.37 19.977,26.895 C21.993,26.158 23.745,24.734 24.934,22.953 C25.523,22.073 25.957,21.101 26.215,20.075 C26.479,19.022 26.648,17.974 26.606,16.89 L27.589,16.89 C28.082,16.89 28.283,16.54 28.037,16.113 Z M16,2.657 C16.736,2.657 17.336,3.257 17.336,3.993 C17.336,4.729 16.736,5.329 16,5.329 C15.264,5.329 14.664,4.729 14.664,3.993 C14.664,3.257 15.264,2.657 16,2.657 Z" id="Shape"></path>
        </g>
    </g>
</svg>
