<?xml version="1.0" encoding="UTF-8"?>
<svg width="26px" height="24px" viewBox="0 0 26 24" version="1.1" xmlns="http://www.w3.org/2000/svg" xmlns:xlink="http://www.w3.org/1999/xlink">
    <title>Combined Shape</title>
    <g id="Page-1" stroke="none" stroke-width="1" fill="none" fill-rule="evenodd">
        <g id="noun_Camera_3499487" transform="translate(-3.000000, 0.000000)" fill="var( --theme-color-icon, #000000 )" fill-rule="nonzero">
            <path d="M27.006,4.451 C27.982,4.451 28.775,5.243 28.776,6.221 L28.776,6.221 L28.776,21.548 C28.776,22.526 27.983,23.319 27.006,23.319 L27.006,23.319 L4.996,23.319 C4.018,23.319 3.225,22.526 3.225,21.548 L3.225,21.548 L3.225,6.221 C3.225,5.243 4.017,4.451 4.996,4.451 L4.996,4.451 Z M12.084,7.729 C8.69,7.729 5.928,10.49 5.928,13.885 C5.928,16.854 8.043,19.34 10.846,19.914 C11.246,19.996 11.66,20.039 12.084,20.039 C12.508,20.039 12.922,19.996 13.322,19.914 C16.125,19.34 18.238,16.854 18.238,13.885 C18.238,10.491 15.478,7.729 12.084,7.729 Z M12.084,9.289 C14.617,9.289 16.68,11.352 16.68,13.885 C16.68,16.418 14.617,18.479 12.084,18.479 C9.551,18.479 7.488,16.418 7.488,13.885 C7.488,11.352 9.551,9.289 12.084,9.289 Z M26.189,7.575 L21.365,7.575 L21.365,10.02 L26.189,10.02 L26.189,7.575 Z M8.39,0.682 C9.291,0.682 10.021,1.412 10.021,2.312 L10.021,2.312 L10.022,2.312 L10.022,2.891 L6.709,2.891 L6.709,2.312 C6.709,1.412 7.438,0.682 8.338,0.682 L8.338,0.682 Z" id="Combined-Shape"></path>
        </g>
    </g>
</svg>