<?xml version="1.0" encoding="UTF-8"?>
<svg width="18px" height="30px" viewBox="0 0 18 30" version="1.1" xmlns="http://www.w3.org/2000/svg" xmlns:xlink="http://www.w3.org/1999/xlink">
    <title>Ice Cream</title>
    <g id="Page-1" stroke="none" stroke-width="1" fill="none" fill-rule="evenodd">
        <g id="noun_Ice-Cream_3499492" transform="translate(-7.000000, 0.000000)" fill="var( --theme-color-icon, #000000 )" fill-rule="nonzero">
            <path d="M19.747,21.834 L16.945,28.186 C16.425,29.363 15.575,29.363 15.056,28.186 L15.056,28.186 L14.548,27.034 L19.747,21.834 Z M19.449,17.727 C19.969,18.013 20.559,18.168 21.175,18.168 C21.187,18.168 21.198,18.165 21.21,18.164 L21.21,18.164 L13.871,25.503 L12.618,22.662 L17.161,18.119 C17.346,18.148 17.533,18.168 17.724,18.168 C18.341,18.168 18.93,18.013 19.449,17.727 Z M12.55,17.727 C13.069,18.013 13.659,18.168 14.275,18.168 C14.518,18.168 14.752,18.137 14.983,18.09 L14.983,18.09 L11.942,21.131 L10.626,18.147 C10.692,18.151 10.756,18.168 10.823,18.168 C11.441,18.168 12.03,18.013 12.55,17.727 Z M16,0.931 C20.617,0.931 24.361,4.674 24.361,9.292 C24.361,10.943 23.876,12.477 23.054,13.772 C23.157,14.017 23.216,14.287 23.216,14.57 C23.216,15.696 22.304,16.608 21.179,16.608 C20.448,16.608 19.812,16.221 19.453,15.644 C19.092,16.221 18.457,16.608 17.727,16.608 C16.997,16.608 16.361,16.221 16.002,15.644 C15.642,16.221 15.006,16.608 14.277,16.608 C13.546,16.608 12.911,16.221 12.551,15.644 C12.191,16.221 11.555,16.608 10.825,16.608 C9.7,16.608 8.788,15.695 8.788,14.57 C8.788,14.287 8.846,14.017 8.95,13.772 C8.124,12.476 7.639,10.942 7.639,9.292 C7.639,4.674 11.382,0.931 16,0.931 Z" id="Combined-Shape"></path>
        </g>
    </g>
</svg>