<?xml version="1.0" encoding="UTF-8"?>
<svg width="25px" height="25px" viewBox="0 0 25 25" version="1.1" xmlns="http://www.w3.org/2000/svg" xmlns:xlink="http://www.w3.org/1999/xlink">
    <title>Push Pin</title>
    <g id="Page-1" stroke="none" stroke-width="1" fill="none" fill-rule="evenodd">
        <g id="noun_pushpin_3499512" transform="translate(-3.000000, -1.000000)" fill="#000000" fill-rule="nonzero">
            <path d="M9.276,18.249 L10.751,19.723 L5.717,24.757 C5.513,24.961 5.246,25.063 4.98,25.063 C4.714,25.063 4.447,24.961 4.243,24.757 C3.836,24.349 3.836,23.69 4.243,23.283 L4.243,23.283 L9.276,18.249 Z M19.426,0.938 L28.063,9.575 C26.516,11.122 24.008,11.122 22.463,9.575 L22.463,9.575 L17.039,17.203 C18.29,19.122 18.077,21.714 16.393,23.397 L16.393,23.397 L5.603,12.607 C7.286,10.924 9.88,10.711 11.798,11.961 L11.798,11.961 L19.426,6.538 C17.879,4.991 17.879,2.484 19.426,0.938 L19.426,0.938 Z" id="Combined-Shape"></path>
        </g>
    </g>
</svg>