<?xml version="1.0" encoding="UTF-8"?>
<svg width="28px" height="20px" viewBox="0 0 28 20" version="1.1" xmlns="http://www.w3.org/2000/svg" xmlns:xlink="http://www.w3.org/1999/xlink">
    <title>Sunglasses</title>
    <g id="Page-1" stroke="none" stroke-width="1" fill="none" fill-rule="evenodd">
        <g id="noun_Sunglasses_3499498" transform="translate(-2.000000, 0.000000)" fill="var( --theme-color-icon, #000000 )" fill-rule="nonzero">
            <path d="M23.036,9.106 C25.629,9.106 28.733,9.644 28.864,9.665 C29.237,9.73 29.51,10.055 29.512,10.435 L29.512,10.435 L29.512,12.025 C29.512,12.335 29.328,12.615 29.044,12.74 C28.8,12.985 28.408,14.611 28.22,15.392 C28.08,15.975 27.958,16.479 27.829,16.85 C27.3,18.37 25.736,19.212 24.857,19.212 L24.857,19.212 L20.634,19.212 C18.169,19.212 16.849,16.46 16.437,13.886 C16.395,13.625 16.067,13.611 16.001,13.611 C15.935,13.611 15.607,13.624 15.565,13.886 C15.153,16.46 13.833,19.212 11.368,19.212 L11.368,19.212 L7.145,19.212 C6.266,19.212 4.701,18.371 4.173,16.85 C4.044,16.479 3.923,15.975 3.782,15.392 C3.593,14.611 3.202,12.985 2.895,12.703 C2.612,12.579 2.49,12.335 2.49,12.025 L2.49,12.025 L2.49,10.435 C2.49,10.056 2.763,9.73 3.136,9.665 C3.267,9.643 6.371,9.106 8.964,9.106 C9.435,9.106 9.867,9.125 10.248,9.161 C11.566,9.285 12.554,9.528 13.425,9.741 C14.319,9.961 15.091,10.151 16,10.151 C16.908,10.151 17.68,9.961 18.575,9.741 C19.446,9.528 20.435,9.285 21.752,9.161 C22.133,9.125 22.564,9.106 23.036,9.106 Z M6.048773,13.685721 L5.955,13.7 C5.641,13.775 5.446,14.091 5.52,14.405 C5.882,15.929 6.79,16.952 7.782,16.952 L7.782,16.952 L10.781,16.952 C11.104,16.952 11.366,16.69 11.366,16.366 C11.366,16.044 11.104,15.782 10.781,15.782 L10.781,15.782 L7.782,15.782 C7.486,15.782 6.925,15.259 6.659,14.136 C6.585,13.821 6.268,13.626 5.955,13.7 Z M19.278016,13.685721 L19.184,13.7 C18.869,13.775 18.675,14.091 18.749,14.405 C19.11,15.929 20.019,16.952 21.011,16.952 L21.011,16.952 L24.01,16.952 C24.332,16.952 24.595,16.69 24.595,16.366 C24.595,16.044 24.332,15.782 24.01,15.782 L24.01,15.782 L21.011,15.782 C20.715,15.782 20.154,15.259 19.888,14.136 C19.814,13.821 19.498,13.626 19.184,13.7 Z M10.295,1.362 C12.364,0.336 14.35,0.836 14.823,1.69 C15.296,2.544 11.93,2.384 10.66,3.383 C9.979,3.92 8.3,5.907 6.887,7.634 C6.082,7.696 5.308,7.782 4.657,7.865 C6.479,5.33 9.04,1.984 10.295,1.362 Z M17.176,1.689 C17.648,0.835 19.635,0.336 21.703,1.361 C22.959,1.983 25.521,5.329 27.341,7.864 C26.691,7.781 25.918,7.696 25.111,7.633 C23.699,5.906 22.021,3.92 21.34,3.383 C20.07,2.384 16.704,2.543 17.176,1.689 Z" id="Combined-Shape"></path>
        </g>
    </g>
</svg>