<?xml version="1.0" encoding="UTF-8"?>
<svg width="32px" height="28px" viewBox="0 0 32 28" version="1.1" xmlns="http://www.w3.org/2000/svg" xmlns:xlink="http://www.w3.org/1999/xlink">
    <title>Whale</title>
    <g id="Page-1" stroke="none" stroke-width="1" fill="none" fill-rule="evenodd">
        <g id="noun_Whale_3499502" fill="var( --theme-color-icon, #000000 )" fill-rule="nonzero">
            <path d="M24.666,23.996 C26.343,23.996 27.223,24.459 27.998,24.866 C28.704,25.236 29.313,25.556 30.606,25.556 C31.036,25.556 31.385,25.906 31.385,26.336 C31.385,26.766 31.036,27.116 30.606,27.116 C28.929,27.116 28.049,26.653 27.273,26.246 C26.568,25.876 25.959,25.556 24.667,25.556 C23.374,25.556 22.766,25.876 22.06,26.246 C21.284,26.653 20.404,27.116 18.727,27.116 C17.05,27.116 16.171,26.653 15.396,26.246 C14.691,25.876 14.083,25.556 12.791,25.556 C11.499,25.556 10.89,25.876 10.185,26.246 C9.409,26.653 8.53,27.116 6.853,27.116 C5.176,27.116 4.297,26.653 3.522,26.246 C2.818,25.876 2.21,25.556 0.918,25.556 C0.487,25.556 0.138,25.207 0.138,24.777 C0.138,24.346 0.487,23.996 0.918,23.996 C2.594,23.996 3.474,24.459 4.249,24.866 C4.953,25.236 5.562,25.556 6.853,25.556 C8.144,25.556 8.753,25.236 9.458,24.866 C10.234,24.459 11.113,23.996 12.79,23.996 C14.467,23.996 15.346,24.459 16.121,24.866 C16.826,25.236 17.434,25.556 18.726,25.556 C20.018,25.556 20.627,25.236 21.333,24.866 C22.109,24.459 22.989,23.996 24.666,23.996 Z M24.666,20.117 C26.343,20.117 27.223,20.58 27.998,20.987 C28.704,21.357 29.313,21.677 30.606,21.677 C31.036,21.677 31.386,22.026 31.3850021,22.456 C31.3850021,22.887 31.036,23.237 30.606,23.237 C28.929,23.237 28.049,22.774 27.273,22.367 C26.568,21.997 25.959,21.677 24.667,21.677 C23.374,21.677 22.766,21.997 22.06,22.367 C21.284,22.774 20.404,23.237 18.727,23.237 C17.05,23.237 16.171,22.774 15.396,22.367 C14.691,21.997 14.083,21.677 12.791,21.677 C11.499,21.677 10.89,21.997 10.185,22.367 C9.409,22.774 8.53,23.237 6.853,23.237 C5.176,23.237 4.297,22.774 3.522,22.367 C2.818,21.997 2.21,21.677 0.918,21.677 C0.487,21.677 0.138,21.327 0.138,20.897 C0.138,20.467 0.487,20.117 0.918,20.117 C2.594,20.117 3.474,20.58 4.249,20.987 C4.953,21.357 5.562,21.677 6.853,21.677 C8.144,21.677 8.753,21.357 9.458,20.987 C10.234,20.58 11.113,20.117 12.79,20.117 C14.467,20.117 15.346,20.58 16.121,20.987 C16.826,21.357 17.434,21.677 18.726,21.677 C20.018,21.677 20.627,21.357 21.333,20.987 C22.109,20.58 22.989,20.117 24.666,20.117 Z M7.994,7.258 C11.127,6.892 14.54,7.728 17.31,11.651 C20.921,16.767 24.045,14.875 24.72,13.314 C24.72,13.314 23.328,9.873 25.514,7.472 C25.514,7.472 27.691,9.779 27.095,11.427 C27.095,11.427 29.208,9.443 31.861,10.43 C31.861,10.43 30.998,13.717 26.957,14.279 C26.957,14.279 26.361,16.635 23.541,18.627 C22.164,18.797 21.282,19.25 20.608,19.604 C19.98,19.934 19.634,20.116 18.726,20.116 C17.82,20.116 17.474,19.934 16.847,19.604 C16.005,19.162 14.852,18.556 12.791,18.556 C10.73,18.556 9.576,19.163 8.733,19.604 C8.106,19.934 7.761,20.116 6.854,20.116 C5.948,20.116 5.602,19.934 4.975,19.604 C4.852,19.541 4.72,19.473 4.582,19.401 C3.02,17.953 2.249,15.653 2.713,12.163 C3.044,9.667 5.543,7.544 7.994,7.258 Z M8.198,11.47 C7.659,11.47 7.222,11.906 7.222,12.444 C7.222,12.982 7.659,13.42 8.198,13.42 C8.736,13.42 9.172,12.982 9.172,12.444 C9.172,11.906 8.736,11.47 8.198,11.47 Z M4.797,3.399 C5.199,2.567 7.228,2.344 7.509,6.32 C7.509,6.32 7.054,5.114 6.115,5.003 C4.987,4.868 4.487,4.043 4.797,3.399 Z M7.954,6.32 C8.47,3.169 10.071,3.495 10.33,4.188 C10.532,4.725 10.073,5.347 9.162,5.372 C8.406,5.391 7.954,6.32 7.954,6.32 Z M7.833,3.728 C7.332,0.779 8.85,0.582 9.291,1.118 C9.631,1.53 9.413,2.222 8.615,2.52 C7.951,2.768 7.833,3.728 7.833,3.728 Z" id="Combined-Shape"></path>
        </g>
    </g>
</svg>